<?xml version="1.0" encoding="utf-8"?>
<!-- Flag icon by Arthur Shlain from Usefulicons.com -->
<svg xmlns="http://www.w3.org/2000/svg" xmlns:xlink="http://www.w3.org/1999/xlink" xml:space="preserve" version="1.1" x="0px" y="0px" viewBox="0 0 100 100" width="400px" height="400px"><path d="M91.25,10C86.063,10,81.069,11.313,76.239,12.582C71.509,13.826,67.041,15,62.5,15C61.122,15,60,13.878,60,12.5C60,8.364,56.636,5,52.5,5C47.392,5,40.845,6.295,34.515,7.547C29.454,8.549,24.264,9.568,20,9.888L20,7.5C20,6.119,18.881,5,17.5,5L7.5,5C6.119,5,5,6.119,5,7.5L5,92.5C5,93.881,6.119,95,7.5,95L17.5,95C18.881,95,20,93.881,20,92.5L20,64.901C24.656,64.587,30.143,63.509,35.485,62.452C41.58,61.247,47.881,60,52.5,60C53.878,60,55,61.122,55,62.5C55,66.636,58.364,70,62.5,70C67.687,70,72.681,68.687,77.511,67.418C82.241,66.174,86.709,65,91.25,65C92.631,65,93.75,63.881,93.75,62.5L93.75,12.5C93.75,11.119,92.631,10,91.25,10ZM15,90L10,90L10,10L15,10L15,90ZM88.75,60.097C84.453,60.423,80.289,61.518,76.239,62.582C71.509,63.826,67.041,65,62.5,65C61.122,65,60,63.878,60,62.5C60,58.364,56.636,55,52.5,55C47.392,55,40.845,56.295,34.515,57.547C29.454,58.549,24.265,59.567,20,59.888L20,14.901C24.656,14.587,30.143,13.509,35.485,12.452C41.58,11.247,47.881,10,52.5,10C53.878,10,55,11.122,55,12.5L55,37.5C55,38.881,56.119,40,57.5,40S60,38.881,60,37.5L60,19.563C60.783,19.841,61.622,20,62.5,20C67.687,20,72.681,18.687,77.511,17.418C81.371,16.403,85.057,15.434,88.75,15.112L88.75,60.097Z" stroke="none"></path></svg>